<?xml version="1.0" encoding="UTF-8"?>
<!DOCTYPE svg PUBLIC "-//W3C//DTD SVG 1.1//EN" "http://www.w3.org/Graphics/SVG/1.1/DTD/svg11.dtd">
<!-- Creator: CorelDRAW X8 -->
<svg xmlns="http://www.w3.org/2000/svg" xml:space="preserve" width="1000px" height="240px" version="1.1" style="shape-rendering:geometricPrecision; text-rendering:geometricPrecision; image-rendering:optimizeQuality; fill-rule:evenodd; clip-rule:evenodd"
viewBox="0 0 1000 240"
 xmlns:xlink="http://www.w3.org/1999/xlink">
 <defs>
  <style type="text/css">
   <![CDATA[
    .fil1 {fill:#9A0000}
    .fil5 {fill:black;fill-rule:nonzero}
    .fil4 {fill:#666666;fill-rule:nonzero}
    .fil0 {fill:#9A0000;fill-rule:nonzero}
    .fil3 {fill:white;fill-rule:nonzero}
    .fil2 {fill:url(#id0)}
   ]]>
  </style>
  <linearGradient id="id0" gradientUnits="userSpaceOnUse" x1="188.189" y1="51.2811" x2="188.189" y2="187.738">
   <stop offset="0" style="stop-opacity:1; stop-color:red"/>
   <stop offset="1" style="stop-opacity:1; stop-color:#BA0000"/>
  </linearGradient>
 </defs>
 <g id="Camada_x0020_1">
  <metadata id="CorelCorpID_0Corel-Layer"/>
  <g id="_2216739626352">
   <path class="fil0" d="M146 14l0 22 9 0c1,-2 4,-4 7,-4 4,0 7,3 7,7 0,4 -3,7 -7,7 -3,0 -6,-1 -7,-4l-9 0 0 36 -6 0 0 -64c-3,-1 -5,-4 -5,-7 0,-4 4,-7 8,-7 4,0 7,3 7,7 0,3 -2,6 -4,7z"/>
   <path class="fil0" d="M190 14l0 22 9 0c2,-2 4,-4 7,-4 4,0 7,3 7,7 0,4 -3,7 -7,7 -3,0 -5,-1 -7,-4l-9 0 0 36 -6 0 0 -64c-3,-1 -4,-4 -4,-7 0,-4 3,-7 7,-7 4,0 7,3 7,7 0,3 -2,6 -4,7z"/>
   <path class="fil1" d="M240 18c2,0 3,1 3,3 0,2 -1,4 -3,4 -2,0 -4,-2 -4,-4 0,-2 2,-3 4,-3zm3 10l0 64 -6 0 0 -64c-3,-1 -5,-4 -5,-7 0,-4 4,-7 8,-7 4,0 7,3 7,7 0,3 -2,6 -4,7z"/>
   <path class="fil0" d="M268 14l0 22 10 0c1,-2 3,-4 6,-4 4,0 8,3 8,7 0,4 -4,7 -8,7 -3,0 -5,-1 -6,-4l-10 0 0 36 -6 0 0 -64c-2,-1 -4,-4 -4,-7 0,-4 3,-7 7,-7 4,0 8,3 8,7 0,3 -2,6 -5,7z"/>
   <path class="fil1" d="M96 18c2,0 3,1 3,3 0,2 -1,4 -3,4 -2,0 -4,-2 -4,-4 0,-2 2,-3 4,-3zm3 10l0 64 -6 0 0 -64c-3,-1 -4,-4 -4,-7 0,-4 3,-7 7,-7 4,0 7,3 7,7 0,3 -2,6 -4,7z"/>
   <path class="fil1" d="M53 102c4,0 8,-3 8,-7 0,-3 -2,-6 -5,-7l0 -9 36 0 0 -6 -64 0c-1,-3 -3,-5 -6,-5 -5,0 -8,4 -8,8 0,4 3,7 8,7 3,0 5,-2 6,-4l22 0 0 9c-2,1 -4,4 -4,7 0,4 3,7 7,7zm-35 -26c0,2 2,3 4,3 1,0 3,-1 3,-3 0,-2 -2,-4 -3,-4 -2,0 -4,2 -4,4zm35 22c2,0 4,-1 4,-3 0,-2 -2,-4 -4,-4 -2,0 -3,2 -3,4 0,2 1,3 3,3z"/>
   <path class="fil0" d="M14 123l22 0 0 -9c-2,-1 -4,-4 -4,-7 0,-4 3,-7 7,-7 4,0 7,3 7,7 0,3 -1,6 -4,7l0 9 36 0 0 6 -64 0c-1,3 -4,5 -7,5 -4,0 -7,-4 -7,-8 0,-4 3,-7 7,-7 3,0 6,2 7,4z"/>
   <path class="fil1" d="M53 170c4,0 8,-3 8,-7 0,-3 -2,-6 -5,-7l0 -9 36 0 0 -6 -64 0c-1,-3 -3,-4 -6,-4 -5,0 -8,3 -8,7 0,4 3,7 8,7 3,0 5,-2 6,-4l22 0 0 9c-2,1 -4,4 -4,7 0,4 3,7 7,7zm-35 -26c0,2 2,3 4,3 1,0 3,-1 3,-3 0,-2 -2,-4 -3,-4 -2,0 -4,2 -4,4zm35 23c2,0 4,-2 4,-4 0,-2 -2,-3 -4,-3 -2,0 -3,1 -3,3 0,2 1,4 3,4z"/>
   <path class="fil0" d="M230 226l0 -22 -9 0c-1,2 -4,4 -7,4 -4,0 -7,-3 -7,-7 0,-4 3,-8 7,-8 3,0 6,2 7,5l9 0 0 -36 6 0 0 64c3,1 5,3 5,6 0,4 -4,8 -8,8 -4,0 -7,-4 -7,-8 0,-3 2,-5 4,-6z"/>
   <path class="fil0" d="M186 226l0 -22 -9 0c-1,2 -4,4 -7,4 -4,0 -7,-3 -7,-7 0,-4 3,-8 7,-8 3,0 6,2 7,5l9 0 0 -36 6 0 0 64c3,1 4,3 4,6 0,4 -3,8 -7,8 -4,0 -7,-4 -7,-8 0,-3 2,-5 4,-6z"/>
   <path class="fil1" d="M136 222c-2,0 -3,-2 -3,-4 0,-2 1,-3 3,-3 2,0 4,1 4,3 0,2 -2,4 -4,4zm-3 -10l0 -64 6 0 0 64c3,1 5,3 5,6 0,4 -4,8 -8,8 -4,0 -7,-4 -7,-8 0,-3 2,-5 4,-6z"/>
   <path class="fil0" d="M108 226l0 -22 -10 0c-1,2 -3,4 -6,4 -4,0 -8,-3 -8,-7 0,-4 4,-8 8,-8 3,0 5,2 6,5l10 0 0 -36 6 0 0 64c2,1 4,3 4,6 0,4 -3,8 -7,8 -4,0 -8,-4 -8,-8 0,-3 2,-5 5,-6z"/>
   <path class="fil1" d="M280 222c-2,0 -3,-2 -3,-4 0,-2 1,-3 3,-3 2,0 4,1 4,3 0,2 -2,4 -4,4zm-3 -10l0 -64 6 0 0 64c3,1 5,3 5,6 0,4 -4,8 -8,8 -4,0 -7,-4 -7,-8 0,-3 2,-5 4,-6z"/>
   <rect class="fil2" x="62" y="51" width="253" height="136" rx="17" ry="18"/>
   <path class="fil3" d="M189 76l0 22 -70 0 0 10 32 0 0 22 -32 0 0 10 70 0 0 21 -102 0 0 -85 102 0zm104 85l-42 0 -11 -14 -11 14 -42 0 32 -42 -32 -43 40 0 13 17 13 -17 40 0 -32 43 32 42z"/>
   <path class="fil4" d="M360 177l-10 0 0 20 -10 0 0 -20 -9 0 0 -7 29 0 0 7zm33 -6l0 6 -21 0 0 3 9 0 0 7 -9 0 0 3 21 0 0 7 -31 0 0 -26 31 0zm33 26l-22 0c-2,0 -4,-1 -5,-1 -2,0 -3,-1 -4,-1 0,-1 -1,-3 -1,-5l0 -13c0,-2 1,-4 1,-4 1,-1 2,-2 4,-2 1,0 3,0 5,0l22 0 0 6 -19 0c-2,0 -3,1 -3,2l0 9c0,1 1,2 3,2l19 0 0 7zm34 0l-11 0 -10 -12 0 12 -10 0 0 -26 10 0 11 13 0 -13 10 0 0 26zm37 -7c0,2 -1,4 -2,5 0,0 -2,1 -4,1 -1,1 -2,1 -4,1l-14 0c-2,0 -3,0 -4,-1 -2,0 -3,0 -4,-1 -1,-1 -2,-3 -2,-5l0 -13c0,-2 1,-4 2,-5 1,0 2,-1 4,-1 1,0 3,0 4,0l14 0c2,0 3,0 4,0 2,0 4,1 4,2 1,0 2,2 2,4l0 13zm-10 -2l0 -9c0,-1 -1,-1 -1,-2 -1,0 -1,0 -2,0l-8 0c-1,0 -1,0 -2,0 0,1 -1,1 -1,2l0 9c0,1 1,1 1,2 1,0 1,0 2,0l8 0c1,0 1,0 2,0 0,-1 1,-1 1,-2zm37 2l0 7 -24 0 0 -27 10 0 0 20 14 0zm34 0c0,2 0,4 -1,5 -1,0 -2,1 -4,1 -1,1 -3,1 -5,1l-13 0c-2,0 -3,0 -4,-1 -2,0 -4,0 -5,-1 0,-1 -1,-3 -1,-5l0 -13c0,-2 1,-4 1,-5 1,0 3,-1 5,-1 1,0 2,0 4,0l13 0c2,0 4,0 5,0 2,0 3,1 4,2 1,0 1,2 1,4l0 13zm-10 -2l0 -9c0,-1 0,-1 -1,-2 0,0 -1,0 -1,0l-8 0c-1,0 -2,0 -2,0 -1,1 -1,1 -1,2l0 9c0,1 0,1 1,2 0,0 1,0 2,0l8 0c0,0 1,0 1,0 1,-1 1,-1 1,-2zm43 9l-21 0c-2,0 -4,-1 -5,-1 -2,0 -3,-1 -4,-1 0,-1 -1,-3 -1,-5l0 -13c0,-2 1,-3 1,-4 1,-1 2,-2 4,-2 1,0 3,0 5,0l21 0 0 6 -18 0c-1,0 -2,0 -2,0 -1,1 -1,1 -1,2l0 9c0,1 0,1 1,2 0,0 1,0 2,0l8 0 0 -3 -8 0 0 -7 18 0 0 17zm12 0l-10 0 0 -26 10 0 0 26zm36 0l-11 0 -2 -4 -9 0 -1 4 -11 0 11 -26 12 0 11 26zm-16 -11l-1 -3 -2 3 3 0zm67 -15l0 6 -22 0 0 3 10 0 0 7 -10 0 0 3 22 0 0 7 -32 0 0 -26 32 0zm38 26l-10 0 0 -9 -4 9 -9 0 -4 -9 0 9 -10 0 0 -26 11 0 8 14 8 -14 10 0 0 26zm54 -7c0,2 -1,4 -2,5 0,0 -2,1 -4,1 -1,1 -2,1 -4,1l-22 0 0 -7 20 0c1,0 2,-1 2,-1 0,-1 0,-2 -1,-2 0,0 0,0 -1,0l-11 0c-2,0 -4,-1 -6,-1 -2,-1 -3,-3 -3,-5l0 -4c0,-2 0,-4 1,-5 1,0 2,-1 4,-1 1,-1 3,-1 5,-1l18 0 0 7 -17 0c-1,0 -1,0 -1,1 0,1 0,2 0,2 0,0 1,0 3,0l10 0c2,0 4,1 6,2 2,1 3,2 3,4l0 4zm33 -19l0 6 -21 0 0 3 9 0 0 7 -9 0 0 3 21 0 0 7 -31 0 0 -26 31 0zm33 26l-10 0 0 -7c0,-1 -1,-2 -3,-2l-8 0 0 9 -10 0 0 -26 21 0c2,0 4,0 5,0 2,0 3,1 4,2 0,1 1,2 1,4l0 5c0,1 -1,2 -2,3 1,0 2,1 2,3l0 9zm-10 -19c0,0 0,-1 -1,-1l-10 0 0 4 8 0c2,0 2,0 3,0 0,0 0,-1 0,-3zm45 -7l-10 26 -13 0 -11 -26 11 0 6 13 6 -13 11 0zm11 26l-9 0 0 -26 9 0 0 26zm35 0l-22 0c-2,0 -3,-1 -5,-1 -1,0 -3,-1 -3,-1 -1,-1 -2,-3 -2,-5l0 -13c0,-2 1,-4 2,-4 0,-1 2,-2 3,-2 2,0 3,0 5,0l22 0 0 6 -19 0c-2,0 -3,1 -3,2l0 9c0,1 1,2 3,2l19 0 0 7zm-17 -2l1 0 -1 2c2,1 3,2 3,3 0,2 0,3 -1,3 -1,1 -2,2 -4,2 0,0 -1,-1 -2,-1l0 -1c1,0 1,0 1,0 1,0 2,0 2,0 1,-1 1,-1 1,-2 0,-1 -1,-2 -2,-2 0,0 0,0 0,0l2 -4zm53 -5c0,2 0,4 -1,5 -1,0 -2,1 -4,1 -1,1 -3,1 -5,1l-13 0c-2,0 -4,0 -4,-1 -2,0 -4,0 -5,-1 -1,-1 -1,-3 -1,-5l0 -13c0,-2 0,-4 1,-5 1,0 3,-1 5,-1 1,0 2,0 4,0l13 0c2,0 4,0 5,0 2,0 3,1 4,2 1,0 1,2 1,4l0 13zm-10 -2l0 -9c0,-1 0,-1 -1,-2 0,0 -1,0 -2,0l-7 0c-1,0 -2,0 -2,0 -1,1 -1,1 -1,2l0 9c0,1 0,1 1,2 0,0 1,0 2,0l7 0c1,0 2,0 2,0 1,-1 1,-1 1,-2zm45 2c0,2 0,4 -1,5 -1,0 -2,1 -4,1 -1,1 -3,1 -5,1l-22 0 0 -7 21 0c1,0 1,-1 1,-1 0,-1 0,-2 0,-2 0,0 -1,0 -1,0l-11 0c-2,0 -4,-1 -6,-1 -3,-1 -4,-3 -4,-5l0 -4c0,-2 1,-4 1,-5 1,0 3,-1 4,-1 2,-1 3,-1 5,-1l19 0 0 7 -17 0c-1,0 -2,0 -2,1 0,1 0,2 1,2 0,0 1,0 2,0l10 0c3,0 5,1 6,2 2,1 3,2 3,4l0 4z"/>
   <path class="fil5" d="M418 161l-62 0c-8,0 -13,0 -18,-1 -6,-1 -11,-3 -14,-6 -3,-3 -4,-8 -4,-15l0 -28c0,-7 1,-12 4,-15 3,-4 8,-6 14,-7 5,0 10,-1 18,-1l62 0 0 24 -52 0c-4,0 -6,0 -7,0 -2,1 -3,2 -3,5l0 16c0,2 1,4 3,4 0,0 3,0 7,0l52 0 0 24zm44 0l-36 0 0 -94 36 0 0 94zm124 0l-36 0 0 -4c-2,3 -6,4 -14,4l-29 0c-8,0 -14,0 -18,-1 -7,-1 -11,-3 -14,-6 -3,-4 -4,-9 -4,-15l0 -51 36 0 0 45c0,2 1,4 3,4 0,0 3,0 8,0l21 0c5,0 8,0 7,0 3,0 4,-2 4,-4l0 -45 36 0 0 73zm125 -22c0,7 -1,12 -4,15 -3,4 -8,6 -15,7 -4,0 -10,0 -17,0l-79 0 0 -24 76 0c3,0 4,-1 4,-2 0,-2 -1,-3 -4,-3l-41 0c-23,0 -35,-5 -35,-15l0 -6c0,-7 2,-12 5,-16 3,-3 8,-5 15,-6 4,-1 9,-1 17,-1l68 0 0 24 -64 0c-3,0 -4,1 -4,3 0,2 1,3 4,3l43 0c21,0 31,6 31,18l0 3zm45 -51l-36 0 0 -21 36 0 0 21zm0 73l-36 0 0 -66 36 0 0 66zm127 -73l-40 73 -45 0 -40 -73 40 0 22 42 22 -42 41 0zm116 26c0,7 -1,11 -4,14 -2,2 -7,4 -14,4 -1,0 -8,0 -18,0l-40 0c0,4 1,6 4,7 2,0 4,0 7,0l60 0 0 22 -71 0c-7,0 -13,0 -17,-1 -7,-1 -12,-3 -15,-6 -2,-3 -4,-9 -4,-15l0 -29c0,-9 5,-16 15,-19 6,-2 15,-3 28,-3l33 0c8,0 14,0 17,1 7,1 12,3 15,7 3,3 4,8 4,14l0 4zm-39 4c3,0 4,-2 4,-4 0,-2 -1,-4 -4,-4l-35 0c-3,0 -4,2 -4,4 0,2 1,4 4,4l35 0z"/>
  </g>
 </g>
</svg>
